<svg xmlns="http://www.w3.org/2000/svg" viewBox="0 0 27.98 26.63"><defs><style>.cls-1{fill:none;stroke:#0071bc;stroke-miterlimit:10;stroke-width:2px;}</style></defs><title>filtericon</title><g id="Layer_2" data-name="Layer 2"><g id="Layer_1-2" data-name="Layer 1"><path class="cls-1" d="M11.92,25c1.33-.68,2.54-1.32,3.77-1.91a.84.84,0,0,0,.52-.89c0-2.68,0-5.37,0-8a2.39,2.39,0,0,1,.47-1.34c2.95-3.75,5.94-7.48,8.92-11.21.14-.18.26-.37.43-.6h-24l.63.81c2.61,3.28,5.18,6.61,7.87,9.81A5.6,5.6,0,0,1,12,15.73C11.84,18.77,11.92,21.81,11.92,25Z"/></g></g></svg>