<svg xmlns="http://www.w3.org/2000/svg" viewBox="0 0 24 24"><title>cooking pot</title><g id="Layer_2" data-name="Layer 2"><g id="Layer_1-2" data-name="Layer 1"><path d="M21.84,0a2.49,2.49,0,0,1,.38.25.56.56,0,0,1,.09.71.63.63,0,0,1-.69.26.72.72,0,0,1-.53-.58.57.57,0,0,1,.36-.59l.14,0Z"/><path d="M21.71,18.33v.34c0,1,0,2,0,3A2.57,2.57,0,0,1,19.15,24H5.05a2.63,2.63,0,0,1-2.71-2,3.49,3.49,0,0,1-.06-.65v-3H1.85A1.71,1.71,0,0,1,0,16.61a5,5,0,0,1,0-.95,1.73,1.73,0,0,1,1.78-1.34h.44c0-.13,0-.24,0-.36V12.75c0-.52.24-.74.79-.74H21c.52,0,.76.23.76.71s0,1,0,1.59c.23,0,.44,0,.64,0A1.66,1.66,0,0,1,24,15.66a4.08,4.08,0,0,1,0,1.35,1.66,1.66,0,0,1-1.64,1.32C22.12,18.34,21.93,18.33,21.71,18.33ZM3.54,13.18c0,.09,0,.16,0,.23,0,2.65,0,5.29,0,7.94a1.65,1.65,0,0,0,.06.49,1.42,1.42,0,0,0,1.51,1H18.88a1.41,1.41,0,0,0,1.59-1.5v-7.9a2.29,2.29,0,0,0,0-.25ZM2.28,17.13c0-.5,0-1,0-1.51a.15.15,0,0,0-.12-.12c-.63-.1-.9.12-.9.72v.1c-.06.83.27.88,1,.84Zm19.45-1.64v1.67c.17,0,.32,0,.47,0a.5.5,0,0,0,.55-.51v-.49c0-.51-.17-.67-.72-.67Z"/><path d="M10,7.77c-.05-.19-.09-.35-.12-.52a1.62,1.62,0,0,1,1.28-1.92,4.52,4.52,0,0,1,1.45-.19A1.64,1.64,0,0,1,14,6.46l.1.39,1.6-.35,5.1-1.14a.67.67,0,0,1,.76.3.55.55,0,0,1-.16.7,1,1,0,0,1-.34.15L3.6,10.39a.66.66,0,0,1-.81-.29A.53.53,0,0,1,3,9.39a1,1,0,0,1,.39-.15L9.77,7.82Zm2.95-.65a3,3,0,0,0-.13-.5.49.49,0,0,0-.56-.34,6.39,6.39,0,0,0-.84.2.43.43,0,0,0-.32.51,3.84,3.84,0,0,0,.12.52Z"/><path d="M21.18,10.88a1.74,1.74,0,0,1-1.8-1.67,1.75,1.75,0,0,1,1.8-1.7A1.78,1.78,0,0,1,23,9.2,1.76,1.76,0,0,1,21.18,10.88Zm0-1.17a.55.55,0,0,0,.55-.51.57.57,0,0,0-.56-.52.54.54,0,0,0-.54.53A.53.53,0,0,0,21.18,9.71Z"/><path d="M16.5,8.85a2.09,2.09,0,0,1,2.14,2,.6.6,0,0,1-.55.62.62.62,0,0,1-.68-.49c0-.1,0-.19,0-.28a.88.88,0,0,0-.9-.64.87.87,0,0,0-.84.71,1.6,1.6,0,0,1-.13.44.6.6,0,0,1-.67.25.63.63,0,0,1-.46-.58A2.09,2.09,0,0,1,16.5,8.85Z"/><path d="M18.92,4.11a.72.72,0,0,1,.69-.67.62.62,0,0,1,.63.58.73.73,0,0,1-.7.66A.59.59,0,0,1,18.92,4.11Z"/></g></g></svg>