<svg xmlns="http://www.w3.org/2000/svg" viewBox="0 0 24 24"><defs><style>.cls-1{fill:red;}</style></defs><title>searchicon</title><g id="Layer_2" data-name="Layer 2"><g id="Layer_1-2" data-name="Layer 1"><path class="cls-1" d="M8.78,0a8.82,8.82,0,0,1,8.77,8.72,8.72,8.72,0,0,1-8.86,8.81A8.57,8.57,0,0,1,0,8.63,8.66,8.66,0,0,1,8.78,0ZM4.31,8.75a4.51,4.51,0,0,0,4.45,4.54,4.6,4.6,0,0,0,4.47-4.57A4.56,4.56,0,0,0,8.84,4.31,4.43,4.43,0,0,0,4.31,8.75Z"/><path class="cls-1" d="M14.4,16.81l2.35-2.37L24,21.68,21.41,24Z"/></g></g></svg>